<svg xmlns="http://www.w3.org/2000/svg" xmlns:xlink="http://www.w3.org/1999/xlink" version="1.1" x="0px" y="0px" viewBox="0 0 500 500" style="enable-background:new 0 0 500 500;" xml:space="preserve">
<g xmlns="http://www.w3.org/2000/svg" id="Background_Complete">
	<path style="fill:#CDE9FF;" d="M110.46,399.77c0,0-47.91-43.32-53.45-88.71c-8.03-65.76,79.3,13.71,105.33-3.23   c26.03-16.94-56.16-95.2,10.53-110.47c66.69-15.27,82.74,42.23,109.05,84.29c43.11,68.91,46.03-106.19,118.51-22.17   c47.25,54.77,14.01,140.44,14.01,140.44L110.46,399.77z"/>
</g>
<g xmlns="http://www.w3.org/2000/svg" id="Background_Simple" style="display:none;">
	<g style="display:inline;">
		<path style="fill:#407BFF;" d="M995.38,336.93c-3.6-57.64-48.28-111.82-98.57-137.46c-69.93-35.66-137.66-34.13-161.22,33.22    c-22.76,65.07,13.34,93.11,89.88,127.4C898.7,392.92,999.77,407.2,995.38,336.93z"/>
		<path style="opacity:0.9;fill:#FFFFFF;" d="M995.38,336.93c-3.6-57.64-48.28-111.82-98.57-137.46    c-69.93-35.66-137.66-34.13-161.22,33.22c-22.76,65.07,13.34,93.11,89.88,127.4C898.7,392.92,999.77,407.2,995.38,336.93z"/>
	</g>
	<g style="display:inline;">
		<path style="fill:#407BFF;" d="M377.38,336.93c-3.6-57.64-48.28-111.82-98.57-137.46c-69.93-35.66-137.66-34.13-161.22,33.22    c-22.76,65.07,13.34,93.11,89.88,127.4C280.7,392.92,381.77,407.2,377.38,336.93z"/>
		<path style="opacity:0.9;fill:#FFFFFF;" d="M377.38,336.93c-3.6-57.64-48.28-111.82-98.57-137.46    c-69.93-35.66-137.66-34.13-161.22,33.22c-22.76,65.07,13.34,93.11,89.88,127.4C280.7,392.92,381.77,407.2,377.38,336.93z"/>
	</g>
</g>
<g xmlns="http://www.w3.org/2000/svg" id="Shadow_1_">
	<ellipse id="_x3C_Path_x3E__1_" style="fill:#D3D3D3;" cx="249.17" cy="400.68" rx="193.89" ry="11.32"/>
</g>
<g xmlns="http://www.w3.org/2000/svg" id="Character_1_">
	<g>
		<path style="fill:#2B93F6;" d="M261.84,174.06c-3-2.28-8.14-14.73-14.95-21.07c-5.45-5.08-10.35-3.19-4.83,4.38    c5.52,7.58,14.1,14.62,19.24,18.66C261.55,175.42,261.84,174.06,261.84,174.06z"/>
		<path style="opacity:0.5;fill:#FFFFFF;" d="M254.24,168.95c-6.59-6.19-16.81-17.52-11.73-15.99    C247.59,154.49,260.84,175.14,254.24,168.95z"/>
	</g>
	<g>
		<path style="fill:#2B93F6;" d="M390.94,368.56c-2.66,2.58-2.59,5.67-0.65,7.67c1.94,2.01,5.03,2.17,7.69-0.41    c2.66-2.58,3.89-6.92,1.95-8.93C397.99,364.89,393.61,365.98,390.94,368.56z"/>
		<g>
			<path style="opacity:0.3;fill:#FFFFFF;" d="M396.53,372.04c-0.93-0.96-1.7-0.22-2.63-1.17c-0.93-0.96-0.16-1.71-1.1-2.67     c-0.28-0.29-0.57-0.42-0.87-0.48c1.02-0.76,2.21-1.32,3.36-1.61c0.7,0.88,0.07,1.6,0.95,2.5c0.93,0.96,1.7,0.22,2.63,1.17     c0.93,0.96,0.16,1.71,1.1,2.67c0.07,0.07,0.14,0.13,0.2,0.18c-0.4,0.95-0.97,1.86-1.67,2.65c-0.27-0.07-0.54-0.23-0.88-0.57     C396.7,373.74,397.47,373,396.53,372.04z"/>
			<path style="opacity:0.1;" d="M394.74,374.82c1.08,1.11,1.57,1.19,2.34,1.77c-0.54,0.39-1.1,0.68-1.65,0.87     c-0.56-0.35-1.04-0.58-1.9-1.46c-1.45-1.49-1.05-1.88-2.51-3.38c-0.83-0.85-1.31-1.1-1.84-1.43c0.17-0.5,0.43-1,0.77-1.48     c0.73,0.54,1.23,0.64,2.29,1.73C393.68,372.93,393.29,373.31,394.74,374.82z"/>
		</g>
	</g>
	<g>
		<g>
			<path style="fill:#2B93F6;" d="M380.93,369.11c1.3,3.47-0.09,6.23-2.7,7.21c-2.62,0.98-5.47-0.2-6.77-3.67     c-1.3-3.47-0.54-7.92,2.07-8.9C376.15,362.77,379.63,365.64,380.93,369.11z"/>
			<path style="opacity:0.2;" d="M380.93,369.11c1.3,3.47-0.09,6.23-2.7,7.21c-2.62,0.98-5.47-0.2-6.77-3.67     c-1.3-3.47-0.54-7.92,2.07-8.9C376.15,362.77,379.63,365.64,380.93,369.11z"/>
		</g>
		<g>
			<path style="opacity:0.3;fill:#2B93F6;" d="M374.39,369.85c1.26-0.47,1.63,0.53,2.88,0.07c1.26-0.47,0.88-1.47,2.14-1.94     c0.38-0.14,0.7-0.13,0.99-0.06c-0.6-1.12-1.43-2.14-2.34-2.89c-1.01,0.49-0.75,1.41-1.93,1.85c-1.26,0.47-1.63-0.53-2.88-0.07     c-1.26,0.47-0.88,1.47-2.14,1.94c-0.09,0.03-0.18,0.06-0.26,0.08c-0.04,1.03,0.08,2.1,0.37,3.11c0.27,0.05,0.59,0.03,1.04-0.14     C373.51,371.32,373.13,370.32,374.39,369.85z"/>
			<path style="opacity:0.1;" d="M374.81,373.13c-1.45,0.54-1.93,0.4-2.87,0.59c0.32,0.58,0.7,1.08,1.11,1.49     c0.66-0.07,1.19-0.07,2.34-0.5c1.95-0.73,1.76-1.24,3.71-1.97c1.11-0.42,1.66-0.43,2.28-0.5c0.06-0.52,0.04-1.08-0.06-1.67     c-0.9,0.17-1.39,0.05-2.81,0.58C376.58,371.88,376.77,372.4,374.81,373.13z"/>
		</g>
	</g>
	<g>
		<path style="fill:#2B93F6;" d="M380.65,369.07c-1.19,3.51,0.27,6.23,2.92,7.12c2.64,0.9,5.46-0.36,6.66-3.87    c1.19-3.51,0.31-7.93-2.34-8.83C385.24,362.59,381.84,365.56,380.65,369.07z"/>
		<g>
			<path style="opacity:0.3;fill:#FFFFFF;" d="M385.47,372.89c-0.85,0.81-1.07,1.96-0.49,2.57c0.58,0.61,1.74,0.45,2.59-0.36     c0.85-0.81,1.07-1.96,0.49-2.57C387.48,371.92,386.32,372.08,385.47,372.89z"/>
			<g>
				<path style="opacity:0.3;fill:#FFFFFF;" d="M390.43,366.7c0.36,1.27,0.42,2.75,0.17,4.2l0,0.01c-0.1,0.01-0.2,0.02-0.3,0      c-0.83-0.09-1.4-1.12-1.27-2.28C389.14,367.62,389.72,366.84,390.43,366.7z"/>
				<path style="opacity:0.3;fill:#FFFFFF;" d="M380.5,370.64c0.85-0.22,1.83,0.75,2.19,2.15c0.31,1.15,0.09,2.24-0.47,2.71      c-1.39-0.99-2.18-2.68-1.95-4.76C380.34,370.69,380.42,370.66,380.5,370.64z"/>
				<path style="opacity:0.3;fill:#FFFFFF;" d="M382.59,366.14c-0.06-0.06-0.12-0.15-0.16-0.22c0.72-0.88,1.57-1.61,2.46-2.06      l0.01,0c0.45,0.46,0.3,1.34-0.34,1.97C383.92,366.46,383.03,366.6,382.59,366.14z"/>
			</g>
			<path style="opacity:0.3;fill:#FFFFFF;" d="M383,368.97c-0.48,1-0.29,2.1,0.43,2.44c0.72,0.35,1.69-0.19,2.18-1.19     c0.48-1,0.29-2.1-0.43-2.44C384.46,367.43,383.49,367.96,383,368.97z"/>
			<path style="opacity:0.3;fill:#FFFFFF;" d="M388.64,366.23c-0.12,0.73-0.6,1.26-1.08,1.18c-0.48-0.08-0.78-0.73-0.66-1.46     c0.12-0.73,0.6-1.26,1.08-1.18C388.46,364.85,388.75,365.5,388.64,366.23z"/>
		</g>
	</g>
	<g>
		<path style="fill:#2B93F6;" d="M373.52,396.99l23.97,0.37c1.62,0.03,3.04-1.11,3.36-2.7l3.28-16.03l-36.66-0.57l2.77,16.13    C370.52,395.79,371.9,396.97,373.52,396.99z"/>
		<path style="fill:#2B93F6;" d="M378.16,386.66c-7.05-3.06-11.94-10.15-11.82-18.3l0,0c0.08-5.24,2.2-10.13,5.96-13.77    c3.76-3.64,8.72-5.61,13.95-5.52c5.24,0.08,10.13,2.2,13.77,5.96c3.64,3.76,5.61,8.71,5.52,13.95c-0.08,5.24-2.2,10.13-5.96,13.77    c-3.76,3.64-8.71,5.61-13.95,5.53C382.99,388.22,380.46,387.65,378.16,386.66z M367.35,368.37c-0.16,10.26,8.05,18.73,18.31,18.89    c4.97,0.08,9.67-1.78,13.24-5.24c3.57-3.46,5.58-8.1,5.65-13.07c0.08-4.97-1.78-9.67-5.24-13.24c-3.46-3.57-8.1-5.58-13.07-5.65    c-4.97-0.08-9.67,1.78-13.24,5.24C369.43,358.76,367.42,363.4,367.35,368.37L367.35,368.37z"/>
		<g>
			<path style="fill:#2B93F6;" d="M386.77,350.38c-0.34-0.15-0.61-0.36-0.8-0.67c-0.74-1.22,0.44-3.05,1.56-4.37     c1.31-1.55,3.2-3.16,4.93-4.21c3.63-2.21,7.26-2.4,8.44-0.46l0,0c1.17,1.92-0.69,5.03-4.32,7.23c-1.73,1.05-4.03,1.98-6.01,2.44     C389.31,350.63,387.78,350.81,386.77,350.38z M399.31,340.58c-1.25-0.54-3.63-0.23-6.32,1.4c-1.64,1-3.44,2.53-4.69,4.01     c-1.47,1.73-1.71,2.81-1.47,3.21c0.24,0.4,1.3,0.68,3.52,0.17c1.88-0.43,4.07-1.32,5.71-2.32c3.04-1.85,4.83-4.48,3.99-5.86     C399.89,340.93,399.64,340.72,399.31,340.58z"/>
			<path style="fill:#2B93F6;" d="M381.61,349.55c-0.01,0-0.02-0.01-0.03-0.01c-1.86-0.81-3.95-2.16-5.45-3.51     c-3.15-2.84-4.4-6.24-2.9-7.91l0,0c1.52-1.69,5.05-0.82,8.21,2.02c1.5,1.36,3.06,3.29,4.06,5.06c0.85,1.51,1.67,3.53,0.72,4.59     C385.27,350.83,383.19,350.24,381.61,349.55z M373.97,338.78c-1.08,1.2,0.18,4.12,2.82,6.5c1.43,1.29,3.42,2.57,5.18,3.34     c2.07,0.89,3.18,0.83,3.49,0.49c0.31-0.34,0.27-1.45-0.85-3.42c-0.95-1.68-2.43-3.52-3.86-4.81     C377.81,338.21,374.94,337.71,373.97,338.78L373.97,338.78z"/>
			<path style="fill:#2B93F6;" d="M386.57,351.03c-0.15-0.07-0.27-0.21-0.29-0.38c-0.16-1.04,0.26-1.98,0.27-2.01     c0.11-0.25,0.45-0.36,0.66-0.25c0.25,0.11,0.36,0.41,0.25,0.66c0,0.01-0.31,0.71-0.2,1.45c0.04,0.27-0.15,0.53-0.42,0.57     C386.74,351.08,386.65,351.06,386.57,351.03z"/>
			<path style="fill:#2B93F6;" d="M388.08,356.43c-0.25-0.11-0.37-0.39-0.27-0.64c1.47-3.68-1.07-6.49-1.18-6.61     c-0.19-0.2-0.18-0.52,0.03-0.71c0.2-0.19,0.52-0.18,0.71,0.02c0.13,0.14,3.09,3.38,1.38,7.66c-0.1,0.26-0.39,0.38-0.65,0.28     C388.09,356.43,388.08,356.43,388.08,356.43z"/>
			<path style="fill:#2B93F6;" d="M385.48,358.37c-0.11-0.05-0.21-0.14-0.26-0.26c-2.33-5.29-0.52-9.34-0.44-9.51     c0.11-0.25,0.4-0.36,0.65-0.25c0,0,0.01,0,0.01,0c0.25,0.12,0.36,0.41,0.25,0.66c-0.02,0.04-1.7,3.83,0.44,8.69     c0.11,0.25,0,0.55-0.26,0.66C385.75,358.42,385.6,358.42,385.48,358.37z"/>
			<path style="fill:#2B93F6;" d="M386.33,350.97c-0.8-0.35-1.38-1.56-1.56-1.97c-0.11-0.25,0.01-0.55,0.26-0.66     c0.25-0.11,0.55,0.01,0.66,0.26c0.32,0.73,0.85,1.46,1.08,1.46c0.28,0.01,0.5,0.23,0.49,0.51c0,0.28-0.23,0.5-0.51,0.49     C386.61,351.07,386.47,351.03,386.33,350.97z"/>
		</g>
		<polygon style="opacity:0.2;" points="403.75,380.56 403.26,382.94 368.21,382.4 367.8,380   "/>
		<path style="opacity:0.2;fill:#FFFFFF;" d="M372.14,387.81c4.18,0.07,4.24-3.93,8.41-3.87c4.18,0.07,4.12,4.06,8.29,4.13    c4.17,0.07,4.23-3.93,8.41-3.87c2.74,0.04,3.65,1.78,5.13,2.99l-0.94,4.61c-1.08-1.06-2.11-2.17-4.3-2.21    c-4.17-0.07-4.23,3.93-8.41,3.87c-4.17-0.07-4.11-4.06-8.29-4.13c-4.17-0.07-4.23,3.93-8.4,3.87c-0.82-0.01-1.49-0.18-2.04-0.44    l-1.05-6.12C369.74,387.28,370.68,387.78,372.14,387.81z"/>
		<path style="fill:#2B93F6;" d="M368.94,381.21l33.63,0.52c2.3,0.04,4.21-1.82,4.25-4.12l0,0c0.04-2.3-1.82-4.21-4.12-4.25    l-33.63-0.52c-2.3-0.04-4.21,1.82-4.25,4.12l0,0C364.79,379.27,366.64,381.18,368.94,381.21z"/>
	</g>
	<g>
		<path style="fill:#0E538D;" d="M401.17,372.7c1.41-0.08,6.58,0.3,6.54,4.35c-0.04,4.06-7.6,1.21-9.89,0.07    c-2.29-1.15-5.82,4.16-14,3.48c-8.18-0.68-8.53-3.61-12.79-3.14c-4.26,0.46-7.03,2.17-6.74-0.49c0.29-2.66,2.17-5.65,6.22-4.84    c4.04,0.82,9.73-0.66,13.28-0.11C387.34,372.57,395.56,373.03,401.17,372.7z"/>
		<path style="opacity:0.2;fill:#0E538D;" d="M401.17,372.7c1.41-0.08,6.58,0.3,6.54,4.35c-0.04,4.06-7.6,1.21-9.89,0.07    c-2.29-1.15-5.82,4.16-14,3.48c-8.18-0.68-8.53-3.61-12.79-3.14c-4.26,0.46-7.03,2.17-6.74-0.49c0.29-2.66,2.17-5.65,6.22-4.84    c4.04,0.82,9.73-0.66,13.28-0.11C387.34,372.57,395.56,373.03,401.17,372.7z"/>
	</g>
	<path style="opacity:0.3;fill:#FFFFFF;" d="M213.31,217.78c-0.93,0.62-1.96,1.06-3.04,1.39c-9.95,3.13-25.27-5.58-35.44-20.87   c-10.16-15.29-12.26-32.79-5.52-40.75c0.73-0.86,1.53-1.64,2.46-2.26c9.6-6.38,27.22,2.54,38.47,19.48   C221.51,191.7,222.91,211.4,213.31,217.78z"/>
	<path style="fill:#EDC1AB;" d="M236.43,239.84c-2.22-3.21-3.88-2.61-5.17-3.02c-1.29-0.41-3.9,1.56-4.4,3.49   c-0.5,1.93-0.91,1.96-0.69,3.42c0.23,1.46,4.2,1.3,6.05,1.21c1.85-0.09,7.57,1.04,7.57,1.04l5.44-6.09L236.43,239.84z"/>
	<path style="fill:#EDC1AB;" d="M238.83,238.94c-1.6-2.87-2.92-1.73-4.9-0.98c-1.99,0.75-4.76,2.44-4.76,2.44s-0.45,1.79,0.88,2.24   c1.33,0.45,5.04-1.16,5.76,1.15c0.72,2.32,9.42-3.9,9.42-3.9L238.83,238.94z"/>
	<g>
		<path style="fill:#EDA948;" d="M296.52,200.18c-5.83-0.69-9.61,2.68-12.73,17.48c-2.47,11.71-7.74,20.43-7.74,20.43l-35.82,0.61    l-2.31,7.17c0,0,35.61,6.8,43.2,5.77c10.48-1.41,15.94-19.34,21.1-33.3C305.86,208.46,304.46,201.12,296.52,200.18z"/>
	</g>
	<g>
		<path style="fill:#EDC1AB;" d="M255.86,185.05c1.33,3.15,2.26,6.15,3.52,8.09c1.25,1.94,0.4,5.79-0.08,7.52    c-0.48,1.72,3.29,1.36,3.29,1.36s2.34,1.82,5.11,5.61c1.23,1.69,4.44-0.46,6.64-1.17c2.2-0.72,3.11-3.34,5.7-6.98    c2.59-3.64,3.27-9.65,3.27-9.65L280,177.45l-14.45-1.22L255.86,185.05z"/>
		<path d="M256.74,187.23c-4.25,0.88-11.24-7.64-1.14-10.93c4.6-1.5,14.24-8.6,18.98-6.5c4.74,2.1,5.24,5.75,5.24,5.75    s2.7-0.92,5.41,4.57c2.71,5.49-0.92,17-0.39,20.12l-6.57-5.31c0,0,3.11-3.85,1.65-7.15c-1.46-3.29-6.55-3.25-6.25,0.18    c0.3,3.43-1.56,4.1-1.56,4.1s-2.97-2.83-2.37-5.03c1.13-4.11-5.75-8.11-7.22-5.49C261.06,184.17,260.49,186.45,256.74,187.23z"/>
		<path style="fill:#EDC1AB;" d="M291.43,197.91c-0.61,0.05-1.05,0.06-1.24,0.01c-1.7-0.43-12.29-3.87-12.29-3.87l-2,11.96    c0,0,14.34,10.43,19.42,12.97C293.76,212,292.41,205,291.43,197.91z"/>
	</g>
	<polygon style="fill:#ffa91e;" points="289.09,196.33 283.86,215.79 288.56,218.93 294.14,197.23  "/>
	<path style="fill:#ffa91e;" d="M294.14,197.23c0,0,3.43-0.07,8.1-0.15c7.74-0.13,22.9,6.11,31.67,12.84   c14.05,10.78,28.82,39.43,28.82,39.43s-5.68,5.38-14.65,8.67c-8.97,3.29-18.23,4.19-18.23,4.19s-14.37-22.01-25.73-24.52   c-11.36-2.51-18.34-10.74-18.34-10.74L294.14,197.23z"/>
	<g>
		<path style="fill:#EDA948;" d="M362.73,249.35c4.01,10.42,3.17,23.6-0.02,33.04c-2.56,7.58-7.6,23.62-10.38,39.22    c-1.63,9.13,7.62,35.13,17.67,56.66l-10.93,5.95c0,0-29.57-44.21-29.57-57.29c0-13.08,0.34-64.73,0.34-64.73L362.73,249.35z"/>
		<polygon style="fill:#EDC1AB;" points="370.01,378.27 375.95,389.54 362.07,397.58 356.01,397.58 363.42,388.09 360.56,382.73       "/>
		<g>
			<path style="fill:#ffa91e;" d="M361.75,250.85c4.01,10.42,2.67,23.45-0.02,33.04c-2.69,9.59-27.55,37.31-28.97,44.95     c-2.91,15.68-14.45,53.38-14.45,53.38h-12.49c0,0,6.66-42.21,6.66-55.29c0-13.08,16.38-63.22,16.38-63.22L361.75,250.85z"/>
			<polygon style="fill:#EDC1AB;" points="318.31,382.22 316.82,396.46 297.95,396.75 306.17,390.55 308.79,382.22    "/>
		</g>
	</g>
	<polygon style="fill:#2D94F2;" points="222.97,230.87 218.46,234.62 207.26,221 211.76,217.25  "/>
	<path style="fill:#87A9C6;" d="M249.79,263.7l-4.33,3.6c-0.82,0.68-2.03,0.57-2.72-0.25l-27.14-33.03   c-0.68-0.82-0.57-2.03,0.25-2.72l4.33-3.6c0.82-0.68,2.03-0.57,2.72,0.25l27.14,33.03C250.72,261.8,250.61,263.02,249.79,263.7z"/>
	<g>
		<path style="fill:#2D94F2;" d="M212.78,173.08c-13.02-19.58-33.38-28.94-45.49-20.89c-12.11,8.05-11.37,30.45,1.65,50.03    c13.02,19.58,33.38,28.94,45.49,20.89C226.53,215.07,225.79,192.67,212.78,173.08z M213.31,217.78c-0.93,0.62-1.96,1.06-3.04,1.39    c-9.95,3.13-25.27-5.58-35.44-20.87c-10.16-15.29-12.26-32.79-5.52-40.75c0.73-0.86,1.53-1.64,2.46-2.26    c9.6-6.38,27.22,2.54,38.47,19.48C221.51,191.7,222.91,211.4,213.31,217.78z"/>
		<g>
			<path style="fill:#87A9C6;" d="M210.25,174.76c-11.26-16.94-28.88-25.86-38.47-19.48c-0.93,0.62-1.73,1.4-2.46,2.26     c9.95-3.13,25.27,5.58,35.44,20.87c10.16,15.29,12.26,32.79,5.53,40.75c1.07-0.34,2.1-0.77,3.04-1.39     C222.91,211.4,221.51,191.7,210.25,174.76z"/>
			<path style="fill:#87A9C6;" d="M168.94,202.22c-13.02-19.58-13.76-41.98-1.65-50.03l-6.06,4.03     c-12.11,8.05-11.37,30.44,1.65,50.03c13.02,19.58,33.38,28.94,45.49,20.89l6.06-4.03C202.32,231.16,181.96,221.8,168.94,202.22z"/>
		</g>
	</g>
	<g>
		<path style="fill:#EDC1AB;" d="M245.7,249.47c0,0-9.75-1.86-11.95-1.36c-2.2,0.5-8.2,4.31-8.2,4.31l0.9,0.53l2.14-0.14l-1.62,1.16    l1.27,1.08l1.55-0.44l2.04-0.09l-2.71,1.19l1.3,0.79l3.02-0.36l-1.96,0.94l0.8,1.02l7.13-2.5l4.49-1.85l5.24,1.03L245.7,249.47z"/>
		<path style="fill:#ffa91e;" d="M295.55,201.67c-5.57-1.85-9.64,2.44-9.44,17.57c0.18,13.09-1.75,24.21-1.75,24.21l-38.66,6.02    l-0.85,7.48c0,0,38.59,0.21,46.2,1.08c7.61,0.87,9.33-22.71,10.53-33.18C302.77,214.38,303.14,204.19,295.55,201.67z"/>
	</g>
	<g>
		<path style="fill:#263238;" d="M308.58,388.49l8.76,0.14c0.33,0.01,0.61,0.24,0.67,0.56l1.47,7.16c0.15,0.74-0.42,1.43-1.18,1.41    c-3.16-0.1-7.73-0.36-11.7-0.42c-4.65-0.07-5.64,0.12-11.09,0.03c-3.29-0.05-4.16-3.4-2.77-3.68c6.3-1.27,8.41-1.34,13.89-4.6    C307.24,388.73,307.89,388.48,308.58,388.49z"/>
		<path style="fill:#2B93F6;" d="M307.75,389.59c-1.3,0.24-3.6,0.52-4.47-0.28c-0.26-0.24-0.38-0.55-0.34-0.93c0,0,0,0,0,0    c0.02-0.23,0.13-0.4,0.32-0.5c0.98-0.53,4.18,1.16,4.55,1.35c0.07,0.04,0.11,0.12,0.1,0.2c-0.01,0.07-0.06,0.13-0.13,0.15    C307.77,389.59,307.76,389.59,307.75,389.59z M303.44,388.22c-0.08,0.04-0.11,0.1-0.12,0.2c-0.02,0.26,0.05,0.46,0.22,0.61    c0.49,0.45,1.81,0.54,3.58,0.28c-1.26-0.63-3-1.32-3.61-1.12C303.49,388.2,303.46,388.21,303.44,388.22z"/>
		<path style="fill:#2B93F6;" d="M307.64,389.57c-0.96-0.45-2.85-2.22-2.69-3.12c0.04-0.21,0.19-0.48,0.72-0.52l0,0    c0.39-0.03,0.74,0.08,1.05,0.34c1.01,0.85,1.19,3.02,1.2,3.11c0.01,0.07-0.03,0.13-0.08,0.17c-0.02,0.01-0.03,0.02-0.05,0.02    C307.73,389.6,307.68,389.6,307.64,389.57z M305.32,386.52c-0.1,0.54,1.19,1.93,2.17,2.54c-0.09-0.63-0.36-1.93-1.02-2.49    c-0.23-0.2-0.48-0.28-0.77-0.25c0,0,0,0,0,0c-0.08,0.01-0.15,0.02-0.19,0.04C305.34,386.4,305.32,386.49,305.32,386.52z     M305.67,386.12L305.67,386.12L305.67,386.12z"/>
	</g>
	<g>
		<path style="fill:#263238;" d="M363.48,388.64l8.77-4.35c0.29-0.15,0.65-0.07,0.86,0.19l4.59,5.69c0.48,0.59,0.27,1.48-0.42,1.8    c-2.84,1.35-4.98,2.21-8.54,3.97c-2.19,1.08-5.87,2.41-12.99,2.41c-3.3,0-3.81-3.33-2.43-3.63c6.18-1.35,8.23-2.57,9.21-5.05    C362.71,389.21,363.05,388.85,363.48,388.64z"/>
		<path style="fill:#2B93F6;" d="M360.16,391.39c-0.36-0.09-0.63-0.33-0.8-0.73c-0.12-0.29-0.04-0.5,0.05-0.63    c0.59-0.8,3.62-0.53,3.96-0.49c0.08,0.01,0.14,0.06,0.16,0.13c0.02,0.07,0,0.15-0.06,0.2c-0.44,0.37-1.09,0.86-1.75,1.19    C361.17,391.34,360.62,391.5,360.16,391.39z M359.72,390.27c-0.03,0.05-0.07,0.12-0.01,0.25c0.12,0.28,0.29,0.44,0.54,0.5    c0.56,0.14,1.52-0.29,2.62-1.14C361.65,389.81,360.02,389.85,359.72,390.27z"/>
		<path style="fill:#2B93F6;" d="M363.35,389.93c-0.94-0.04-3.16-0.9-3.41-1.77c-0.04-0.16-0.06-0.46,0.32-0.72l0,0    c0.25-0.16,0.53-0.21,0.83-0.14c1.17,0.27,2.37,2.26,2.43,2.34c0.04,0.06,0.04,0.13,0,0.19c-0.02,0.03-0.05,0.06-0.08,0.07    C363.41,389.92,363.38,389.93,363.35,389.93z M360.47,387.75L360.47,387.75c-0.21,0.14-0.18,0.25-0.16,0.3    c0.15,0.52,1.65,1.25,2.67,1.45c-0.38-0.56-1.21-1.66-1.97-1.83c-0.17-0.04-0.33-0.02-0.47,0.04    C360.52,387.72,360.49,387.74,360.47,387.75z"/>
	</g>
	<g>
		<path style="fill:#2B93F6;" d="M266.53,173.44c0.89-3.42-4.1-17.39-2.95-26.25c0.92-7.09,6.67-7.33,7.6,2.17    c0.93,9.5-1.24,19.76-2.67,25.74C267.82,174.6,266.53,173.44,266.53,173.44z"/>
		<path style="opacity:0.5;fill:#FFFFFF;" d="M268.74,166.15c1.16-8.61,1.3-23.67-2.66-20.25    C262.13,149.32,267.59,174.75,268.74,166.15z"/>
	</g>
	<path style="fill:#2B93F6;" d="M276.59,185.37c-1.73-5.43-6.76-13.66-12.98-13.82c-0.55-0.01-1.1,0.14-1.54,0.47l-1.54,1.11   c6.88-0.22,11.78,7.7,13.51,13.25C274.66,185.47,275.85,185.27,276.59,185.37z"/>
</g>
<g xmlns="http://www.w3.org/2000/svg" id="Rock_with_egg">
	<g>
		<path style="fill:#2B93F6;" d="M122.51,393.58c0,0-3.44-31.09-23.29-57.27c14.69,9.73,32.87,41.59,31.29,57.27    C128.35,393.58,122.51,393.58,122.51,393.58z"/>
		<path style="fill:#2B93F6;" d="M117.05,393.58c0,0-0.37-22.38-20.73-41.97c14.71,6.63,31.01,29.43,28.73,41.97    C122.89,393.58,117.05,393.58,117.05,393.58z"/>
		<path style="fill:#2B93F6;" d="M134.18,393.58c0,0-7.77-22.38-2.46-41.97c-6.53,6.63-8.24,29.43-2.38,41.97    C130.64,393.58,134.18,393.58,134.18,393.58z"/>
	</g>
	<g>
		<polygon style="fill:#2B93F6;" points="156.72,396.46 277.54,396.46 266.73,360.22 249.75,349.74 236.62,334.34 177.57,321.96     158.27,338.6 136.65,349.74 133.95,365.45 116.97,383.19 111.95,396.8   "/>
		<polygon style="opacity:0.6;fill:#FFFFFF;" points="156.72,396.46 277.54,396.46 266.73,360.22 249.75,349.74 236.62,334.34     177.57,321.96 158.27,338.6 136.65,349.74 133.95,365.45 116.97,383.19 111.95,396.8   "/>
	</g>
	<polygon style="opacity:0.2;fill:#2B93F6;" points="249.75,349.74 231.77,347.03 217.04,349.74 230.49,343.83 245.33,344.55  "/>
	<polygon style="opacity:0.2;fill:#2B93F6;" points="158.27,338.6 171.59,339.88 184.71,338.6 168.92,343.83 152.19,341.74  "/>
	<polygon style="opacity:0.2;fill:#2B93F6;" points="199.97,366.98 162.1,368.64 142.46,366.98 161.24,373.87  "/>
	<g>
		<path style="fill:#2B93F6;" d="M250.26,397.98c0,0-3.16-32.2,9.58-59.32c-11.38,10.08-21.46,43.07-16.85,59.32    C244.94,397.98,250.26,397.98,250.26,397.98z"/>
		<path style="fill:#2B93F6;" d="M255.22,397.98c0,0-4.19-23.18,10.35-43.48c-12.02,6.87-22.23,30.48-17.62,43.48    C249.91,397.98,255.22,397.98,255.22,397.98z"/>
		<path style="fill:#2B93F6;" d="M239.65,397.98c0,0,2.54-23.18-6.26-43.48c7.27,6.87,13.44,30.48,10.65,43.48    C242.87,397.98,239.65,397.98,239.65,397.98z"/>
	</g>
	<g>
		<path style="fill:#2B93F6;" d="M141.98,397.98c0,0,1-12.73-10.05-23.45c9.24,3.99,18.49,17.03,15.66,23.45    C146.08,397.98,141.98,397.98,141.98,397.98z"/>
		<path style="fill:#2B93F6;" d="M150.16,397.98c0,0-3-9.16,2.88-17.18c-5.3,2.71-9.01,12.05-6.28,17.18    C147.68,397.98,150.16,397.98,150.16,397.98z"/>
	</g>
	<g>
		<g>
			<g>
				<path style="fill:#2B93F6;" d="M152.25,336.37c6.32,0.94,9.33,5.34,8.62,10.11c-0.71,4.77-4.87,8.09-11.2,7.15      c-6.32-0.94-12.41-5.8-11.7-10.57C138.69,338.29,145.93,335.42,152.25,336.37z"/>
				<path style="opacity:0.9;fill:#FFFFFF;" d="M152.25,336.37c6.32,0.94,9.33,5.34,8.62,10.11c-0.71,4.77-4.87,8.09-11.2,7.15      c-6.32-0.94-12.41-5.8-11.7-10.57C138.69,338.29,145.93,335.42,152.25,336.37z"/>
			</g>
		</g>
		<g>
			<path style="fill:#2B93F6;" d="M154.3,346.78c1.91-0.67,3.85-0.1,4.33,1.27c0.48,1.37-0.69,3.02-2.6,3.69     c-1.91,0.67-3.85,0.1-4.33-1.27C151.22,349.1,152.39,347.45,154.3,346.78z"/>
			<path style="fill:#2B93F6;" d="M140.88,349.49c1.67,1.56,3.89,2.81,6.3,3.58l0.02,0c0.09-0.14,0.18-0.29,0.24-0.45     c0.52-1.35-0.61-3.04-2.49-3.76C143.32,348.24,141.65,348.52,140.88,349.49z"/>
			<path style="fill:#2B93F6;" d="M154.78,337.38c-1.01,1.12-0.3,3.39,1.56,5.07c1.52,1.38,3.36,1.92,4.53,1.43     c-0.42-2.92-2.38-5.47-5.76-6.76C154.98,337.18,154.86,337.27,154.78,337.38z"/>
			<path style="fill:#2B93F6;" d="M146.23,337.03c-0.05-0.15-0.13-0.3-0.22-0.42c-1.93,0.41-3.71,1.14-5.1,2.15l0,0.02     c0.35,1.05,1.82,1.51,3.28,1.03C145.66,339.31,146.58,338.07,146.23,337.03z"/>
			
				<ellipse transform="matrix(0.0272 -0.9996 0.9996 0.0272 -196.1869 483.1713)" style="fill:#2B93F6;" cx="150.16" cy="342.39" rx="2.49" ry="3.48"/>
			<path style="fill:#2B93F6;" d="M141.58,346.37c1.21,0.4,2.41,0.08,2.67-0.72c0.26-0.8-0.5-1.77-1.71-2.17     c-1.21-0.4-2.41-0.08-2.67,0.72C139.6,345,140.37,345.97,141.58,346.37z"/>
		</g>
	</g>
</g>
</svg>