<svg xmlns="http://www.w3.org/2000/svg" xmlns:xlink="http://www.w3.org/1999/xlink" version="1.1" id="Layer_1" x="0px" y="0px" viewBox="0 0 1080 1080" style="enable-background:new 0 0 1080 1080;" xml:space="preserve">
<style xmlns="http://www.w3.org/2000/svg" type="text/css">
	.st0{fill:#F7F7F7;}
	.st1{fill:#F2F2F2;}
	.st2{fill:#E2E2E2;}
	.st3{fill:#2A94F4;}
	.st4{fill:#DCF2FF;}
	.st5{fill:#80D5FF;}
	.st6{fill:#B6E7FF;}
	.st7{fill:#0E538C;}
	.st8{fill:#FCD2B1;}
	.st9{fill:#FFE3CA;}
	.st10{fill:#ffa91e;}
	.st11{fill:#FFFFFF;}
	.st12{fill:#85DDFF;}
	.st13{fill:#41AAF7;}
	.st14{fill:#CCE9FF;}
	.st15{fill:none;stroke:#DCF2FF;stroke-miterlimit:10;}
</style>
<g xmlns="http://www.w3.org/2000/svg">
	<path class="st0" d="M381.1,249.3c-21.3,9.3-42.4,20.6-57.3,38.5c-14.9,17.8-22.3,43.4-13.4,64.9c11.9,28.6,49.7,45.3,49.9,76.3   c0.1,22.2-20.4,39.2-41.1,47.3c-20.7,8.1-43.6,11-62.4,22.8c-28.4,17.8-41.7,52.3-47.2,85.4c-5.7,34.4-3.4,73.5,20.9,98.4   c30.2,31,80.2,27.5,122.9,20.9c57.1-8.8,113.9-19.2,170.7-29.5c124.5-22.7,249.1-45.4,373.6-68.1c13.4-2.4,27.2-5.1,38.1-13.3   c21.5-16.2,23.4-49.6,10.8-73.5c-12.5-23.9-35.7-40.1-58.7-54.1c-23-14-47.3-27.3-64.5-48c-17.2-20.7-25.8-51.4-12.8-75   c11-20,34.8-30.7,45.1-51c13.6-26.8-2.1-61.1-26.8-78.2S493.5,200.1,381.1,249.3z"/>
</g>
<path xmlns="http://www.w3.org/2000/svg" class="st1" d="M1026.9,934H53.1c-5.9,0-10.8-4.9-10.8-10.8v-49.3c0-5.9,4.9-10.8,10.8-10.8h973.8c5.9,0,10.8,4.9,10.8,10.8  v49.3C1037.7,929.1,1032.8,934,1026.9,934z"/>
<g xmlns="http://www.w3.org/2000/svg">
	<path class="st2" d="M564.4,403.3L564.4,403.3c52.4,0,95.2,42.9,95.2,95.2v158.2c0,6.6-5.4,12-12,12H481.2c-6.6,0-12-5.4-12-12   V498.5C469.2,446.2,512,403.3,564.4,403.3z"/>
	<polygon class="st3" points="359.2,543.9 351.9,545.3 344.9,506.6 347.2,498.6 352.1,505.3  "/>
	<polygon class="st4" points="382.9,552.1 375.7,550.4 385.1,512.2 390.5,505.9 392.3,514  "/>
	<polygon class="st5" points="380,547.7 372.6,546.9 377.2,507.8 381.7,500.9 384.5,508.7  "/>
	<rect x="251.6" y="594.4" class="st4" width="625.7" height="17.7"/>
	<rect x="296.6" y="612.2" class="st6" width="535.7" height="278.9"/>
	<g>
		<path class="st7" d="M558.7,317.7c-3.3-6-0.6-13.9,4.5-18.4c5.2-4.5,12.2-6.2,18.9-7.1c12.8-1.7,26-1.1,38.6,2    c8.2,2,16.5,5.1,22.6,11c6.1,5.9,9.7,14.9,7.3,23c-1.5,5-5.1,10-3.3,14.9c1.9,5.1,8.4,6.3,12.8,9.5c5.3,3.8,7.6,10.8,7.2,17.4    s-2.9,12.7-5.8,18.6c-3.3,6.9-8,14.4-15.6,15.9c-8.7,1.7-16.6-5.6-21.2-13.1c-4.8-7.7-8.1-17.3-4.8-25.8c1.5-3.7,4.1-6.9,6-10.3    c2-3.5,3.3-7.7,2-11.4c-1.4-4.1-5.7-6.6-9.9-7.4c-4.3-0.8-8.6-0.2-13,0c-17.6,0.7-35.5-5.4-48.9-16.9"/>
	</g>
	<ellipse class="st7" cx="565" cy="365.4" rx="44.6" ry="51.2"/>
	<path class="st3" d="M672.2,538.9L657,458c-3.2-23.4-81.9-43-81.9-43c-6.1,0-16.1,0-22.2,0c0,0-79.1,21-82.3,44.4L450.9,540   c-4.9,36.6,25.5,33.9,58.2,44.7l43.8,14.3c6.1,0,11.1-5.4,11.1-12c0,6.6,5,12,11.1,12l43.8-14.3   C651.6,573.9,677.1,575.5,672.2,538.9z"/>
	<path class="st3" d="M652,477l0,0.7L649,601.3c-1.5,1.3-3.5,2-5.7,2H482.7c-0.5,0-1,0-1.4-0.1L478,477H652z"/>
	<path class="st8" d="M545.4,400.3l5.5,33.4l0.4,0.8c5,10.6,20.2,10.1,24.5-0.8v0l4.5-33.9L545.4,400.3z"/>
	<path class="st9" d="M602.3,364.5c0,36.3-12.6,49.6-29.1,55.9c-5.8,2.2-12.1,2.3-17.9,0.2c-16.2-5.9-28.7-20-28.7-56   c0-23.1,17-41.8,37.9-41.8C585.3,322.6,602.3,341.4,602.3,364.5z"/>
	<ellipse transform="matrix(0.9341 -0.3569 0.3569 0.9341 -100.1734 213.1851)" class="st9" cx="527.5" cy="378" rx="7.5" ry="9"/>
	<ellipse transform="matrix(0.3569 -0.9341 0.9341 0.3569 34.3489 805.885)" class="st9" cx="602.5" cy="378" rx="9" ry="7.5"/>
	<path class="st10" d="M656.8,485.6l-4.5,108.7c0,2.8-1.3,5.3-3.3,6.9c-1.5,1.3-3.5,2-5.7,2H482.7c-0.5,0-1,0-1.4-0.1   c-4.3-0.7-7.5-4.4-7.5-8.8l-4.5-108.7c0-4.9,4-8.9,9-8.9h169.7c0.8,0,1.6,0.1,2.3,0.3c0.6,0.2,1.2,0.4,1.8,0.7   C654.9,479.2,656.8,482.2,656.8,485.6z"/>
	<circle class="st11" cx="562.7" cy="540" r="17"/>
	<path class="st7" d="M540,347c16,13,55,31,70,25C607,350,583,283,540,347z"/>
	<path class="st7" d="M545,348c1,7-9.4,20.5-17.5,21.2C519,370,523,348,523,348l15.9-20.9l19.7-9.5L580,323L545,348z"/>
	<g>
		<path class="st2" d="M732.4,599h-12.3c-6.3,0-11.5-5.1-11.5-11.5v-36.9h35.3v36.9C743.9,593.9,738.8,599,732.4,599z"/>
		<path class="st2" d="M727.7,546.3c-0.6,0.1-1.2-0.2-1.7-0.5c-0.5-0.4-0.9-0.8-1.3-1.3c-0.7-1-1-2.3-1-3.7c0-1.4,0.8-2.9,1.6-3.8    c0.8-1,1.6-1.6,2-2.1c0.4-0.5,0.6-0.8,0.8-1.4c0.2-0.6,0.3-1.3,0.3-2.1c0-1.5-0.6-3.4-1.1-5.6c1.1,0.4,2,1,2.8,1.7    c0.8,0.7,1.6,1.7,2.1,2.9c0.5,1.1,0.7,2.4,0.6,3.8c-0.1,0.7-0.3,1.4-0.6,2.1c-0.3,0.7-0.8,1.3-1.2,1.8c-0.9,1-1.7,1.5-2.3,2    c-0.6,0.5-0.9,0.8-1.2,1.3c-0.3,0.6-0.5,1.4-0.5,2.2C727.1,544.5,727.1,545.4,727.7,546.3z"/>
		<g>
			<path class="st2" d="M739.8,579.6v-3c4.5,0,7.7-1.4,9-4c1-2,0.7-4.4-0.7-6.3c-1.7-2.3-4.6-3.3-8-2.6l-0.5-3     c4.4-0.8,8.5,0.6,10.9,3.8c2.1,2.8,2.5,6.4,1,9.4C750.4,576.1,747.5,579.6,739.8,579.6z"/>
		</g>
	</g>
	<polygon class="st6" points="388,599 346.8,599 342.8,523 391,523  "/>
	<g>
		<g>
			<circle class="st10" cx="697.6" cy="204.3" r="66.9"/>
		</g>
		<g>
			<circle class="st11" cx="697.6" cy="204.3" r="51.1"/>
		</g>
		<g>
			<path class="st10" d="M718.6,213.8c-0.3,0-0.5,0-0.8-0.1l-21.9-7.5l-15.6-31.5c-0.6-1.1-0.1-2.5,1-3.1c1.1-0.6,2.5-0.1,3.1,1     l14.8,29.8l20.1,6.9c1.2,0.4,1.8,1.7,1.4,2.9C720.5,213.2,719.6,213.8,718.6,213.8z"/>
		</g>
	</g>
</g>
<g xmlns="http://www.w3.org/2000/svg">
	<path class="st6" d="M960.7,898.5c-16.3,0-23.2-13.1-26-26.9c-3.1-15.6-0.8-32.3-0.8-32.3h53.6c0,0,0.1,0.6,0.2,1.8   C988.6,851,991.9,898.5,960.7,898.5z"/>
	<path class="st12" d="M987.5,839.4c0,1.2-12,2.1-26.8,2.1c-14.8,0-26.8-0.9-26.8-2.1c0-1.2,12-2.1,26.8-2.1   C975.5,837.3,987.5,838.2,987.5,839.4z"/>
	<path class="st3" d="M894,690.9c0,0,28.2,43,45.2,69.2c16.9,26.2,21.4,31.7,23.4,40.2c2,8.5,3.8,39.7,3.8,39.7h2.2   c0,0,1.4-26.4-1.2-35.1c-2.6-8.7-1.6-12.1-0.4-21.2c1.2-9.1,2.8-23.6-6.4-33.7c-9.2-10.1-6.8-20-10-26.6   c-3.2-6.7-28.2-14.7-31.5-21.6C916,694.9,901.9,690.7,894,690.9z"/>
	<path class="st13" d="M894,690.9c0,0,8.9,10.1,14.9,13.5c6.1,3.4,8.9,0.4,13.5,8.7c4.6,8.3,4.8,11.9,9.1,16.1   c4.2,4.2,9.3,4.4,9.7,13.7c0.4,9.3-2,17.2-2,17.2S895.8,693.1,894,690.9z"/>
	<path class="st3" d="M959.8,840h-2c0,0-0.6-13.7-6.1-20.4c-3.5-4.3-18.4-9.2-33.2-15c-8.1-3.2-16.2-6.7-22.3-10.6   c-17.2-10.9-33.5-46-34.9-52.3c-0.5-2.2-0.7-3.5-0.7-4.4v0c0-1.7,0.9-1.9,2.3-3.6c0.7-0.8,2.8-0.5,5.3,0.2   c7.4,2.3,13.6,7.3,17.5,14c3.6,6.2,9.3,13.9,16.3,15.8c12.1,3.2,11.1,5.2,15.6,17.6c4.5,12.3,15.7,14.3,29.8,28.8   C961.6,824.7,959.8,840,959.8,840z"/>
	<path class="st13" d="M918.5,804.6c-8.1-3.2-16.2-6.7-22.3-10.6c-17.2-10.9-33.5-46-34.9-52.3c-0.5-2.2-0.7-3.5-0.7-4.4   c0,0.4,0.8,6,9.8,9.7c9.3,3.8,11.1,3.8,12.3,9.7c1.2,5.8,2.2,12.1,7.1,13.3c4.8,1.2,7.9-4.2,11.7,4.6c3.8,8.9,5.7,11.9,9.2,13.1   c3.5,1.2,6.2-0.6,7,6.3C918.1,798.2,918.4,802.1,918.5,804.6z"/>
	<g>
		<path class="st14" d="M960.7,898.5c-16.3,0-23.2-13.1-26-26.9c16-6.1,36.2-15.8,52.9-30.5C988.6,851,991.9,898.5,960.7,898.5z"/>
	</g>
</g>
<g xmlns="http://www.w3.org/2000/svg">
	<path class="st6" d="M148.1,898.5c19.6,0,27.9-15.7,31.1-32.3c3.7-18.7,1-38.7,1-38.7h-64.2c0,0-0.1,0.8-0.2,2.1   C114.5,841.5,110.6,898.5,148.1,898.5z"/>
	<path class="st12" d="M115.9,827.6c0,1.4,14.4,2.5,32.1,2.5c17.7,0,32.1-1.1,32.1-2.5c0-1.4-14.4-2.5-32.1-2.5   C130.3,825.1,115.9,826.2,115.9,827.6z"/>
	<path class="st3" d="M61.1,649.6c0,0,33.9,51.5,54.2,83s25.6,38,28.1,48.1c2.4,10.2,4.6,47.7,4.6,47.7h1.5c0,0-0.5-31.8-2.4-42.5   c-1.8-10.4,0.1-14.1,1.6-25c1.5-10.9,3.4-28.3-7.6-40.4c-11-12.1-8.1-23.9-12-31.9c-3.9-8-33.9-17.7-37.7-25.9   C87.5,654.4,70.5,649.3,61.1,649.6z"/>
	<path class="st13" d="M61.1,649.6c0,0,10.6,12.1,17.9,16.2c7.3,4.1,10.6,0.5,16.2,10.4c5.6,9.9,5.8,14.3,10.9,19.4   c5.1,5.1,11.1,5.3,11.6,16.4c0.5,11.1-2.4,20.6-2.4,20.6S63.3,652.2,61.1,649.6z"/>
	<path class="st3" d="M145.3,828.3h-1.5c0,0-0.5-10.3-4.5-15.3c-2.6-3.2-13.8-6.9-24.9-11.3c-6.1-2.4-12.2-5.1-16.7-8   c-12.9-8.2-25.2-34.6-26.2-39.3c-0.4-1.6-0.5-2.6-0.5-3.3v0c0-1.3,0.7-1.5,1.7-2.7c0.5-0.6,2.1-0.4,4,0.2   c5.6,1.7,10.2,5.5,13.1,10.5c2.7,4.7,7,10.5,12.2,11.9c9.1,2.4,8.3,3.9,11.7,13.2c3.3,9.2,11.8,10.8,22.4,21.7   C146.6,816.8,145.3,828.3,145.3,828.3z"/>
	<path class="st13" d="M114.3,801.8c-6.1-2.4-12.2-5.1-16.7-8c-12.9-8.2-25.2-34.6-26.2-39.3c-0.4-1.6-0.5-2.6-0.5-3.3   c0,0.3,0.6,4.5,7.3,7.3c7,2.9,8.3,2.9,9.2,7.3c0.9,4.4,1.7,9.1,5.3,10c3.6,0.9,5.9-3.2,8.8,3.5c2.9,6.7,4.3,8.9,6.9,9.8   c2.6,0.9,4.7-0.5,5.2,4.7C114,796.9,114.2,799.9,114.3,801.8z"/>
	<path class="st3" d="M156.4,828.3h1.8c0,0,3.5-63.8,8.4-69.7c3.1-3.8,13.4-10.7,26.6-15.9c7.2-2.9,14.4-6,19.8-9.4   c15.3-9.7,29.8-40.9,31-46.5c0.4-1.9,0.6-3.1,0.6-3.9v0c0-1.5-0.8-1.7-2.1-3.2c-0.6-0.7-2.5-0.5-4.7,0.2c-6.6,2-12.1,6.5-15.6,12.5   c-3.2,5.5-8.3,12.4-14.5,14.1c-10.8,2.9-9.9,4.7-13.8,15.6c-4,11-14,12.7-26.5,25.7C154.8,760.6,156.4,828.3,156.4,828.3z"/>
	<path class="st13" d="M193.1,742.8c7.2-2.9,14.4-6,19.8-9.4c15.3-9.7,29.8-40.9,31-46.5c0.4-1.9,0.6-3.1,0.6-3.9   c0,0.4-0.8,5.3-8.7,8.6c-8.2,3.4-9.9,3.4-10.9,8.6c-1.1,5.2-2,10.8-6.3,11.8c-4.3,1.1-7-3.8-10.4,4.1c-3.4,7.9-5,10.6-8.2,11.7   c-3.1,1.1-5.5-0.5-6.2,5.6C193.5,737,193.2,740.6,193.1,742.8z"/>
	<g>
		<path class="st14" d="M148.1,898.5c19.6,0,27.9-15.7,31.1-32.3c-19.2-7.3-43.4-19-63.5-36.6C114.5,841.5,110.6,898.5,148.1,898.5z    "/>
	</g>
</g>
<g xmlns="http://www.w3.org/2000/svg">
	<path class="st15" d="M570.3,258H262.4c-6.6,0-12-5.4-12-12V142.6c0-6.6,5.4-12,12-12h307.9c6.6,0,12,5.4,12,12V246   C582.3,252.6,576.9,258,570.3,258z"/>
	<path class="st4" d="M584.1,244.1H276.3c-6.6,0-12-5.4-12-12V128.7c0-6.6,5.4-12,12-12h307.9c6.6,0,12,5.4,12,12v103.4   C596.1,238.7,590.7,244.1,584.1,244.1z"/>
	<g>
		<path class="st3" d="M566.4,158.1H335.8c-2.6,0-4.6-2.1-4.6-4.6v-0.2c0-2.6,2.1-4.6,4.6-4.6h230.6c2.6,0,4.6,2.1,4.6,4.6v0.2    C571.1,156,569,158.1,566.4,158.1z"/>
		<path class="st3" d="M566.4,181H335.8c-2.6,0-4.6-2.1-4.6-4.6v-0.2c0-2.6,2.1-4.6,4.6-4.6h230.6c2.6,0,4.6,2.1,4.6,4.6v0.2    C571.1,178.9,569,181,566.4,181z"/>
		<path class="st3" d="M456.1,203.8H337.3c-1.8,0-3.4-1.5-3.4-3.4v-2.8c0-1.8,1.5-3.4,3.4-3.4h118.8c1.8,0,3.4,1.5,3.4,3.4v2.8    C459.5,202.3,458,203.8,456.1,203.8z"/>
	</g>
	<g>
		<circle class="st10" cx="269.9" cy="180.4" r="51.1"/>
		<g>
			<path class="st11" d="M252.2,205.3l-15.1-14.4c-2-1.9-2.1-5.1-0.1-7.1c1.9-2,5.1-2.1,7.1-0.1l8.7,8.3l43.4-35.3     c2.1-1.7,5.3-1.4,7,0.7c1.7,2.1,1.4,5.3-0.7,7L252.2,205.3z"/>
		</g>
	</g>
</g>
<g xmlns="http://www.w3.org/2000/svg">
	<path class="st15" d="M442.1,454.6H134.3c-6.6,0-12-5.4-12-12V339.2c0-6.6,5.4-12,12-12h307.9c6.6,0,12,5.4,12,12v103.4   C454.1,449.2,448.7,454.6,442.1,454.6z"/>
	<path class="st4" d="M456,440.6H148.1c-6.6,0-12-5.4-12-12V325.2c0-6.6,5.4-12,12-12H456c6.6,0,12,5.4,12,12v103.4   C468,435.2,462.6,440.6,456,440.6z"/>
	<g>
		<path class="st3" d="M438.3,354.6H207.6c-2.6,0-4.6-2.1-4.6-4.6v-0.2c0-2.6,2.1-4.6,4.6-4.6h230.6c2.6,0,4.6,2.1,4.6,4.6v0.2    C442.9,352.6,440.8,354.6,438.3,354.6z"/>
		<path class="st3" d="M438.3,377.5H207.6c-2.6,0-4.6-2.1-4.6-4.6v-0.2c0-2.6,2.1-4.6,4.6-4.6h230.6c2.6,0,4.6,2.1,4.6,4.6v0.2    C442.9,375.4,440.8,377.5,438.3,377.5z"/>
		<path class="st3" d="M328,400.4H209.1c-1.8,0-3.4-1.5-3.4-3.4v-2.8c0-1.8,1.5-3.4,3.4-3.4H328c1.8,0,3.4,1.5,3.4,3.4v2.8    C331.3,398.9,329.8,400.4,328,400.4z"/>
	</g>
	<g>
		<circle class="st10" cx="141.8" cy="376.9" r="51.1"/>
		<g>
			<path class="st11" d="M124,401.8L109,387.4c-2-1.9-2.1-5.1-0.1-7.1c1.9-2,5.1-2.1,7.1-0.1l8.7,8.3l43.4-35.3     c2.1-1.7,5.3-1.4,7,0.7c1.7,2.1,1.4,5.3-0.7,7L124,401.8z"/>
		</g>
	</g>
</g>
<g xmlns="http://www.w3.org/2000/svg">
	<path class="st3" d="M989.3,452.2H700.5c-4.6,0-8.4-3.8-8.4-8.4V312.8c0-4.6,3.8-8.4,8.4-8.4h288.8c4.6,0,8.4,3.8,8.4,8.4v131.1   C997.7,448.5,993.9,452.2,989.3,452.2z"/>
	<path class="st4" d="M862.7,338.1h-149c-2.1,0-3.8-1.7-3.8-3.8v-1.8c0-2.1,1.7-3.8,3.8-3.8h149c2.1,0,3.8,1.7,3.8,3.8v1.8   C866.6,336.4,864.8,338.1,862.7,338.1z"/>
	<path class="st4" d="M934.5,365.8H713.7c-2.1,0-3.8-1.7-3.8-3.8v-1.8c0-2.1,1.7-3.8,3.8-3.8h220.8c2.1,0,3.8,1.7,3.8,3.8v1.8   C938.3,364,936.6,365.8,934.5,365.8z"/>
	<path class="st4" d="M951.9,393.3H713.7c-2.1,0-3.8-1.7-3.8-3.8v-1.8c0-2.1,1.7-3.8,3.8-3.8h238.2c2.1,0,3.8,1.7,3.8,3.8v1.8   C955.7,391.6,954,393.3,951.9,393.3z"/>
	<path class="st4" d="M851.1,420.8H713.7c-2.1,0-3.8-1.7-3.8-3.8v-1.8c0-2.1,1.7-3.8,3.8-3.8h137.4c2.1,0,3.8,1.7,3.8,3.8v1.8   C855,419.1,853.3,420.8,851.1,420.8z"/>
	<path class="st4" d="M889.3,420.8h-19.7c-2.1,0-3.8-1.7-3.8-3.8v-1.8c0-2.1,1.7-3.8,3.8-3.8h19.7c2.1,0,3.8,1.7,3.8,3.8v1.8   C893.1,419.1,891.4,420.8,889.3,420.8z"/>
	<path class="st4" d="M933,338.2h-51.1c-2.1,0-3.8-1.7-3.8-3.8v-1.8c0-2.1,1.7-3.8,3.8-3.8H933c2.1,0,3.8,1.7,3.8,3.8v1.8   C936.8,336.5,935.1,338.2,933,338.2z"/>
</g>
</svg>