<svg xmlns="http://www.w3.org/2000/svg" xmlns:xlink="http://www.w3.org/1999/xlink" version="1.1" x="0px" y="0px" viewBox="0 0 500 500" style="enable-background:new 0 0 500 500;" xml:space="preserve">
<style xmlns="http://www.w3.org/2000/svg" type="text/css">
	.st0{fill:#ffa91e;}
	.st1{fill:#F7AC37;}
	.st2{fill:#FFCC83;}
	.st3{fill:#FFFFFF;}
	.st4{fill:#0A486F;}
	.st5{fill:#0F538C;}
	.st6{fill:#1E0F00;}
</style>
<g xmlns="http://www.w3.org/2000/svg" id="BACKGROUND">
</g>
<g xmlns="http://www.w3.org/2000/svg" id="OBJECTS">
	<g>
		<path class="st0" d="M135.6,213.4c0-62.1,51.6-112.1,114.2-109.7c55.8,2.2,101.7,47,105.1,102.7c2.1,34.2-11.4,65.2-34.1,86.6    c-23.7,22.5-37,53.8-37,86.5v3.7H207v-3.7c0-33.2-14.2-64.4-38-87.5C148.4,272.2,135.6,244.3,135.6,213.4z"/>
	</g>
	<path class="st1" d="M189.2,119.1c-18.3,29.1-25.4,65.2-18.9,99c1.5,7.7,3.6,15.3,7.1,22.3c4.3,8.7,10.6,16.4,17.8,23   c24.1,22.2,59.2,31.8,91.3,25c25.6-5.4,48.7-21.1,63.7-42.5c-5.6,18.2-15.9,34.4-29.4,47.2c-23.7,22.5-37,53.8-37,86.5v3.7H207   v-3.7c0-33.2-14.2-64.4-38-87.5c-20.6-19.9-33.3-47.9-33.3-78.8C135.6,173.3,157.1,138.2,189.2,119.1z"/>
	<path class="st2" d="M270.2,149.9c-3.3-3.4-6.7-7.1-7.5-11.7c-1.5-8.6,7.1-16.4,15.8-17.1c8.7-0.7,17,3.8,24.1,8.9   c8.9,6.4,17,13.9,24,22.3c4.1,4.9,8,11.6,5.2,17.3c-2.3,4.8-8.3,6.5-13.6,6.6c-9.4,0.2-18.6-3.2-26.5-8.1   C283.6,163.1,276.8,156.6,270.2,149.9z"/>
	<path class="st2" d="M235.5,124c-0.8-2.3-0.8-5,0.4-7.9c6-13.7,30.7-3.2,23.7,10.2C254.5,136.3,238.7,132.9,235.5,124z"/>
	<path class="st3" d="M312.2,146.1c2.6,2.7,5,6.1,4.5,9.7c-0.1,0.8-0.4,1.6-1,2.2c-0.6,0.7-1.5,1.1-2.3,1.3   c-4.4,1.3-9.3,0.1-13.3-2.2s-7.2-5.7-10.4-9.1c-1.5-1.5-3-3.1-3.9-5c-0.9-1.9-1.1-4.3,0-6.1c4.5-2.1,9.9-1.6,14.5,0.3   C304.8,139.2,308.7,142.5,312.2,146.1z"/>
	<path class="st3" d="M292,263.6c1.4-2.5,4.9-0.3,3.8,2.2c-15.9,34.6-21.5,69.4-22.1,107.3c-0.1,4-5.6,3.8-6,0   C263.4,335.6,273.7,296.2,292,263.6z"/>
	<path class="st3" d="M199.8,263.6c-1.4-2.5-4.9-0.3-3.8,2.2c15.9,34.6,21.5,69.4,22.1,107.3c0.1,4,5.6,3.8,6,0   C228.3,335.6,218,296.2,199.8,263.6z"/>
	<circle class="st4" cx="245.4" cy="429" r="18.1"/>
	<path class="st5" d="M263.5,429.3c-0.2,9.9-8.2,17.9-18.1,17.9c-5.1,0-9.8-2.1-13.1-5.6c1.1,0.2,2.2,0.4,3.4,0.5   c4,0.2,7.9-0.6,11.7-1.8c5-1.5,10.5-4.1,11.9-9.1L263.5,429.3z"/>
	<path class="st6" d="M218.9,365.8h53c7.1,0,12.8,5.7,12.8,12.8v41.8c0,7.1-5.7,12.8-12.8,12.8h-53c-7.1,0-12.8-5.7-12.8-12.8v-41.8   C206.1,371.5,211.8,365.8,218.9,365.8z"/>
	<path class="st6" d="M242.3,398.5c8.5,11.6,17.1,23.2,25.6,34.8h-49c-7.1,0-12.8-5.7-12.8-12.8v-41.8c0-6.5,4.8-11.8,11-12.6   C226,376.4,234.1,387.4,242.3,398.5z"/>
	<path class="st4" d="M209.1,379.3h72.6c3.8,0,6.8,3.1,6.8,6.8c0,3.8-3.1,6.8-6.8,6.8h-72.6c-3.8,0-6.8-3.1-6.8-6.8   C202.3,382.3,205.3,379.3,209.1,379.3z"/>
	<path class="st5" d="M239.9,379.3h41.8c3.8,0,6.8,3.1,6.8,6.8c0,3.8-3.1,6.8-6.8,6.8h-24.9C251.2,388.4,245.6,383.7,239.9,379.3z"/>
	<path class="st4" d="M209.1,404h72.6c3.8,0,6.8,3.1,6.8,6.8c0,3.8-3.1,6.8-6.8,6.8h-72.6c-3.8,0-6.8-3.1-6.8-6.8   C202.3,407.1,205.3,404,209.1,404z"/>
	<path class="st5" d="M239.9,404h41.8c3.8,0,6.8,3.1,6.8,6.8c0,3.8-3.1,6.8-6.8,6.8h-24.9C251.2,413.1,245.6,408.5,239.9,404z"/>
	<path class="st3" d="M242.4,124.2c-0.4-0.6-0.7-1.2-0.9-1.9c-1-4,2.4-7.7,6.4-7.3c4.1,0.4,9.3,7.4,5,10.7   C249.9,128,244.6,127.2,242.4,124.2z"/>
	<path class="st3" d="M206.2,263.1c6.1,0.8,12.6,0.4,18.1-1.7c6.5,5.2,14.5,8.5,22.9,8.4c9.3-0.1,18.7-2.3,24.9-8.8   c3.3,0.3,6.9,0.1,10.4-0.3c1.4-0.2,1.5-2.2,0-2.2c-2.7,0-5.3-0.1-8-0.4c0.8-1.1,1.5-2.3,2.1-3.6c3.8-8.1-1.8-16.1-9.6-18   c-6.7-1.7-13.6,6.5-11.2,13c2,5.5,5.6,8.6,10,10.2c-0.7,0.6-1.3,1.2-1.9,2c-7.2,3.2-15.6,4.8-23.4,2.4c-3.7-1.1-7.9-2.7-11.6-5   c3.9-2.6,6.7-6.6,7.8-12.1c1.5-7.9-7.4-14.9-14.7-12.9c-8.2,2.3-9.2,14.2-4.8,20.1c0.9,1.2,2,2.4,3,3.6c-1.4,0.1-3.2,0.2-5.2,0.2   c-3,0-5.9,0.3-8.8,0.6C203.2,258.8,203.3,262.7,206.2,263.1z"/>
	<path class="st0" d="M225.2,240c1.8,0.2,3.2,1.4,4.1,2.9c0.6,1,0.9,3.3-0.4,3.9c-0.2,0.1-0.5,0.1-0.7,0c-0.6-0.5-0.6-1-1-1.7   c-0.4-0.9-1.1-1.5-2.1-1.9c-2-0.7-3.2,1.7-4.1,3c-0.5,0.8-1.9,0.7-2.1-0.3C218.1,242.5,222,239.5,225.2,240z"/>
	<path class="st0" d="M267.5,242.3c1.8,0.2,3.2,1.4,4.1,2.9c0.6,1,0.9,3.3-0.4,3.9c-0.2,0.1-0.5,0.1-0.7,0c-0.6-0.5-0.6-1-1-1.7   c-0.4-0.9-1.1-1.5-2.1-1.9c-2-0.7-3.2,1.7-4.1,3c-0.5,0.8-1.9,0.7-2.1-0.3C260.4,244.8,264.3,241.9,267.5,242.3z"/>
	<path class="st0" d="M361,296.9c5.2,0,9.7,5,13.5,8.3c4.6,3.9,10.3,7.9,12,13.9c1.1,4-2.6,7.4-6.5,6.5c-5.6-1.3-9.6-6.3-13.3-10.4   c-3.7-4-9.4-8.6-9.7-14.3C356.9,298.7,358.9,296.9,361,296.9z"/>
	<path class="st0" d="M385.5,221.3c3.3-3.5,9.1-3.1,13.7-3.5c5.9-0.5,11.9-1.1,16.6,2.9c2.5,2,1.2,5.5-0.9,7.1   c-4.5,3.4-10.5,2.1-15.7,1.7c-4.4-0.4-10.5-0.3-13.7-3.9C384.4,224.3,384.3,222.5,385.5,221.3z"/>
	<path class="st0" d="M374.8,152.9c1.7-4.7,5.8-7.5,9.7-10.4c5.1-3.8,9.6-7,16.1-7.6c3.9-0.3,5.2,4.7,3,7.2c-3.6,3.9-7.9,5.7-12.6,8   c-4.5,2.2-8.9,5.3-14.1,5.5C375.6,155.7,374.4,154.2,374.8,152.9z"/>
	<path class="st0" d="M317.9,79.1c2.9-4.5,6-7.6,10.4-10.7c2.6-1.9,6.8,1.3,5.6,4.3c-2,4.9-4.2,8.7-7.9,12.6   c-3.1,3.3-6.4,7.5-10.8,8.9c-1.6,0.5-3.4-0.9-3.3-2.5C312.1,87.1,315.4,82.9,317.9,79.1z"/>
	<path class="st0" d="M131.9,296.9c-5.2,0-9.7,5-13.5,8.3c-4.6,3.9-10.3,7.9-12,13.9c-1.1,4,2.6,7.4,6.5,6.5   c5.6-1.3,9.6-6.3,13.3-10.4c3.7-4,9.4-8.6,9.7-14.3C136,298.7,134,296.9,131.9,296.9z"/>
	<path class="st0" d="M107.4,221.3c-3.3-3.5-9.1-3.1-13.7-3.5c-5.9-0.5-11.9-1.1-16.6,2.9c-2.5,2-1.2,5.5,0.9,7.1   c4.5,3.4,10.5,2.1,15.7,1.7c4.4-0.4,10.5-0.3,13.7-3.9C108.5,224.3,108.6,222.5,107.4,221.3z"/>
	<path class="st0" d="M118.1,152.9c-1.7-4.7-5.8-7.5-9.7-10.4c-5.1-3.8-9.6-7-16.1-7.6c-3.9-0.3-5.2,4.7-3,7.2   c3.6,3.9,7.9,5.7,12.6,8c4.5,2.2,8.9,5.3,14.1,5.5C117.3,155.7,118.6,154.2,118.1,152.9z"/>
	<path class="st0" d="M175,79.1c-2.9-4.5-6-7.6-10.4-10.7c-2.6-1.9-6.8,1.3-5.6,4.3c2,4.9,4.2,8.7,7.9,12.6   c3.1,3.3,6.4,7.5,10.8,8.9c1.6,0.5,3.4-0.9,3.3-2.5C180.8,87.1,177.5,82.9,175,79.1z"/>
	<path class="st0" d="M236.6,38.2c2.2-1.8,5.7-1.9,7.2,0.9c3,5.4,0.1,12.1-0.9,17.8c-0.3,1.7,0.1,12.3-4.1,10.9   c-4.6-1.5-4.7-8.6-5.2-12.6C232.8,49.7,231.9,42.1,236.6,38.2z"/>
</g>
<g xmlns="http://www.w3.org/2000/svg" id="DESIGNED_BY_FREEPIK">
</g>
</svg>